<svg width="524" height="213" viewBox="0 0 524 213" fill="none" xmlns="http://www.w3.org/2000/svg">
<path d="M299.851 111.718L298.335 147.27L318.412 148.126L319.907 113.086L356.196 58.2625L333.816 57.3081L311.049 92.4659L291.231 55.4919L268.723 54.532L299.851 111.718ZM387.477 110.843L357.936 109.583C358.075 108.308 358.393 106.87 358.888 105.268C359.469 103.67 360.344 102.17 361.514 100.768C362.77 99.3693 364.355 98.2411 366.271 97.3833C368.275 96.4439 370.727 96.036 373.626 96.1596C378.059 96.3487 381.29 97.6822 383.32 100.16C385.435 102.642 386.82 106.203 387.477 110.843ZM357.445 121.093L405.145 123.127C405.704 118.026 405.487 113.106 404.494 108.366C403.5 103.626 401.717 99.3648 399.146 95.5824C396.659 91.8037 393.372 88.7596 389.286 86.45C385.203 84.0552 380.348 82.7378 374.721 82.4978C369.691 82.2833 365.049 82.9822 360.795 84.5944C356.626 86.2102 352.983 88.5317 349.864 91.559C346.749 94.5009 344.291 98.0687 342.489 102.262C340.688 106.456 339.681 111.025 339.471 115.97C339.252 121.086 339.82 125.807 341.173 130.136C342.611 134.468 344.714 138.23 347.481 141.423C350.249 144.616 353.686 147.154 357.79 149.037C361.899 150.835 366.553 151.845 371.754 152.067C379.256 152.387 385.723 150.954 391.155 147.769C396.586 144.585 400.749 139.082 403.645 131.263L387.66 130.581C386.976 132.602 385.272 134.493 382.549 136.256C379.83 137.934 376.637 138.695 372.971 138.538C367.856 138.32 363.991 136.831 361.375 134.072C358.76 131.313 357.45 126.986 357.445 121.093ZM458.352 113.866L428.811 112.606C428.951 111.331 429.268 109.892 429.764 108.291C430.344 106.693 431.22 105.192 432.39 103.79C433.645 102.392 435.231 101.264 437.146 100.406C439.151 99.4665 441.603 99.0586 444.501 99.1822C448.935 99.3713 452.166 100.705 454.196 103.183C456.311 105.665 457.696 109.226 458.352 113.866ZM428.32 124.115L476.021 126.15C476.58 121.049 476.363 116.129 475.369 111.389C474.376 106.649 472.593 102.387 470.021 98.6051C467.534 94.8264 464.248 91.7822 460.161 89.4727C456.078 87.0779 451.223 85.7605 445.596 85.5205C440.566 85.306 435.924 86.0048 431.67 87.617C427.502 89.2329 423.858 91.5544 420.74 94.5816C417.625 97.5236 415.167 101.091 413.365 105.285C411.563 109.479 410.557 114.048 410.346 118.993C410.128 124.108 410.695 128.83 412.048 133.158C413.486 137.49 415.589 141.253 418.357 144.445C421.125 147.638 424.561 150.176 428.666 152.06C432.774 153.858 437.429 154.867 442.629 155.089C450.132 155.409 456.599 153.977 462.03 150.792C467.462 147.607 471.625 142.105 474.521 134.285L458.535 133.603C457.851 135.624 456.148 137.516 453.425 139.279C450.706 140.957 447.513 141.717 443.847 141.561C438.732 141.343 434.866 139.854 432.251 137.095C429.635 134.335 428.325 130.009 428.32 124.115ZM484.747 135.49L483.907 155.184L503.985 156.04L504.825 136.346L484.747 135.49ZM506.192 89.2578L507.239 64.7041L488.313 63.8969L487.265 88.4506L490.445 128.046L499.525 128.433L506.192 89.2578Z" fill="white"/>
<path d="M299.851 111.718L302.848 111.846L302.884 111.015L302.486 110.284L299.851 111.718ZM298.335 147.27L295.337 147.142L295.21 150.139L298.207 150.267L298.335 147.27ZM318.412 148.126L318.285 151.123L321.282 151.251L321.41 148.254L318.412 148.126ZM319.907 113.086L317.405 111.43L316.945 112.125L316.909 112.958L319.907 113.086ZM356.196 58.2625L358.697 59.9184L361.628 55.4914L356.323 55.2652L356.196 58.2625ZM333.816 57.3081L333.944 54.3108L332.23 54.2377L331.298 55.6774L333.816 57.3081ZM311.049 92.4659L308.405 93.8832L310.806 98.3615L313.567 94.0966L311.049 92.4659ZM291.231 55.4919L293.875 54.0746L293.067 52.5675L291.359 52.4946L291.231 55.4919ZM268.723 54.532L268.851 51.5348L263.553 51.3088L266.088 55.9663L268.723 54.532ZM296.854 111.59L295.337 147.142L301.332 147.398L302.848 111.846L296.854 111.59ZM298.207 150.267L318.285 151.123L318.54 145.129L298.462 144.273L298.207 150.267ZM321.41 148.254L322.904 113.214L316.909 112.958L315.415 147.998L321.41 148.254ZM322.408 114.742L358.697 59.9184L353.694 56.6066L317.405 111.43L322.408 114.742ZM356.323 55.2652L333.944 54.3108L333.688 60.3053L356.068 61.2598L356.323 55.2652ZM331.298 55.6774L308.531 90.8353L313.567 94.0966L336.334 58.9387L331.298 55.6774ZM313.693 91.0487L293.875 54.0746L288.587 56.9092L308.405 93.8832L313.693 91.0487ZM291.359 52.4946L268.851 51.5348L268.595 57.5293L291.103 58.4892L291.359 52.4946ZM266.088 55.9663L297.216 113.153L302.486 110.284L271.358 53.0978L266.088 55.9663ZM387.477 110.843L387.349 113.84L390.952 113.994L390.447 110.423L387.477 110.843ZM357.936 109.583L354.953 109.256L354.604 112.444L357.808 112.581L357.936 109.583ZM358.888 105.268L356.069 104.243L356.044 104.312L356.022 104.382L358.888 105.268ZM361.514 100.768L359.282 98.7637L359.246 98.8039L359.211 98.8455L361.514 100.768ZM366.271 97.3833L367.497 100.121L367.521 100.111L367.544 100.1L366.271 97.3833ZM383.32 100.16L380.999 102.061L381.018 102.084L381.037 102.106L383.32 100.16ZM357.445 121.093L357.572 118.096L354.442 117.962L354.445 121.095L357.445 121.093ZM405.145 123.127L405.017 126.124L407.822 126.244L408.127 123.454L405.145 123.127ZM399.146 95.5824L396.639 97.2315L396.652 97.2505L396.665 97.2693L399.146 95.5824ZM389.286 86.45L387.768 89.0377L387.789 89.0499L387.81 89.0618L389.286 86.45ZM360.795 84.5944L359.732 81.7891L359.721 81.7931L359.711 81.7972L360.795 84.5944ZM349.864 91.559L351.924 93.7399L351.939 93.7258L351.954 93.7115L349.864 91.559ZM342.489 102.262L339.733 101.078L339.733 101.078L342.489 102.262ZM341.173 130.136L338.309 131.031L338.317 131.056L338.325 131.081L341.173 130.136ZM357.79 149.037L356.539 151.764L356.563 151.775L356.588 151.785L357.79 149.037ZM391.155 147.769L392.672 150.357L392.672 150.357L391.155 147.769ZM403.645 131.263L406.459 132.304L407.889 128.441L403.773 128.265L403.645 131.263ZM387.66 130.581L387.788 127.584L385.54 127.488L384.818 129.619L387.66 130.581ZM382.549 136.256L384.125 138.809L384.152 138.792L384.18 138.775L382.549 136.256ZM361.375 134.072L363.553 132.008L363.553 132.008L361.375 134.072ZM387.604 107.846L358.063 106.586L357.808 112.581L387.349 113.84L387.604 107.846ZM360.918 109.91C361.031 108.872 361.299 107.626 361.754 106.154L356.022 104.382C355.487 106.113 355.119 107.744 354.953 109.256L360.918 109.91ZM361.708 106.292C362.161 105.045 362.854 103.845 363.818 102.69L359.211 98.8455C357.835 100.495 356.777 102.295 356.069 104.243L361.708 106.292ZM363.747 102.772C364.691 101.72 365.92 100.828 367.497 100.121L365.045 94.6453C362.791 95.6546 360.849 97.0182 359.282 98.7637L363.747 102.772ZM367.544 100.1C368.996 99.4191 370.937 99.0477 373.498 99.1569L373.754 93.1623C370.517 93.0243 367.554 93.4686 364.998 94.6668L367.544 100.1ZM373.498 99.1569C377.419 99.3241 379.695 100.469 380.999 102.061L385.641 98.2594C382.886 94.8953 378.699 93.3732 373.754 93.1623L373.498 99.1569ZM381.037 102.106C382.654 104.005 383.897 106.953 384.506 111.263L390.447 110.423C389.744 105.453 388.215 101.279 385.603 98.2144L381.037 102.106ZM357.317 124.09L405.017 126.124L405.273 120.13L357.572 118.096L357.317 124.09ZM408.127 123.454C408.719 118.057 408.492 112.818 407.43 107.75L401.557 108.981C402.482 113.394 402.69 117.995 402.163 122.8L408.127 123.454ZM407.43 107.75C406.361 102.65 404.431 98.0207 401.626 93.8956L396.665 97.2693C399.003 100.709 400.639 104.602 401.557 108.981L407.43 107.75ZM401.652 93.9333C398.893 89.7412 395.247 86.3732 390.762 83.8382L387.81 89.0618C391.498 91.146 394.425 93.8662 396.639 97.2315L401.652 93.9333ZM390.803 83.8623C386.224 81.1764 380.873 79.7575 374.849 79.5006L374.593 85.4951C379.823 85.7181 384.181 86.934 387.768 89.0377L390.803 83.8623ZM374.849 79.5006C369.456 79.2706 364.404 80.0182 359.732 81.7891L361.858 87.3997C365.693 85.9461 369.925 85.296 374.593 85.4951L374.849 79.5006ZM359.711 81.7972C355.178 83.5541 351.19 86.091 347.775 89.4064L351.954 93.7115C354.775 90.9725 358.074 88.8664 361.879 87.3916L359.711 81.7972ZM347.804 89.378C344.373 92.6192 341.686 96.5332 339.733 101.078L345.246 103.447C346.897 99.6043 349.126 96.3826 351.924 93.7399L347.804 89.378ZM339.733 101.078C337.776 105.634 336.698 110.565 336.473 115.842L342.468 116.098C342.665 111.486 343.6 107.279 345.246 103.447L339.733 101.078ZM336.473 115.842C336.242 121.26 336.841 126.332 338.309 131.031L344.036 129.241C342.799 125.283 342.263 120.912 342.468 116.098L336.473 115.842ZM338.325 131.081C339.878 135.757 342.168 139.873 345.215 143.388L349.748 139.458C347.259 136.586 345.343 133.178 344.02 129.19L338.325 131.081ZM345.215 143.388C348.282 146.926 352.073 149.714 356.539 151.764L359.041 146.31C355.298 144.593 352.217 142.305 349.748 139.458L345.215 143.388ZM356.588 151.785C361.086 153.754 366.114 154.829 371.626 155.064L371.882 149.069C366.993 148.861 362.712 147.916 358.993 146.289L356.588 151.785ZM371.626 155.064C379.592 155.404 386.654 153.886 392.672 150.357L389.637 145.181C384.793 148.022 378.92 149.37 371.882 149.069L371.626 155.064ZM392.672 150.357C398.87 146.723 403.401 140.562 406.459 132.304L400.832 130.221C398.098 137.603 394.301 142.446 389.637 145.181L392.672 150.357ZM403.773 128.265L387.788 127.584L387.532 133.578L403.517 134.26L403.773 128.265ZM384.818 129.619C384.438 130.741 383.355 132.16 380.919 133.738L384.18 138.775C387.189 136.826 389.513 134.462 390.501 131.543L384.818 129.619ZM380.974 133.703C378.838 135.021 376.258 135.676 373.099 135.541L372.844 141.535C377.017 141.713 380.822 140.847 384.125 138.809L380.974 133.703ZM373.099 135.541C368.486 135.344 365.468 134.029 363.553 132.008L359.198 136.136C362.514 139.634 367.226 141.296 372.844 141.535L373.099 135.541ZM363.553 132.008C361.691 130.044 360.449 126.625 360.445 121.09L354.445 121.095C354.45 127.348 355.829 132.581 359.198 136.136L363.553 132.008ZM458.352 113.866L458.224 116.863L461.828 117.017L461.323 113.446L458.352 113.866ZM428.811 112.606L425.829 112.279L425.48 115.467L428.683 115.603L428.811 112.606ZM429.764 108.291L426.944 107.266L426.919 107.335L426.898 107.404L429.764 108.291ZM432.39 103.79L430.158 101.786L430.121 101.827L430.087 101.868L432.39 103.79ZM437.146 100.406L438.373 103.144L438.396 103.133L438.42 103.122L437.146 100.406ZM454.196 103.183L451.875 105.084L451.893 105.106L451.912 105.129L454.196 103.183ZM428.32 124.115L428.448 121.118L425.318 120.985L425.32 124.118L428.32 124.115ZM476.021 126.15L475.893 129.147L478.697 129.267L479.003 126.477L476.021 126.15ZM470.021 98.6051L467.515 100.254L467.527 100.273L467.54 100.292L470.021 98.6051ZM460.161 89.4727L458.643 92.0604L458.664 92.0726L458.685 92.0844L460.161 89.4727ZM431.67 87.617L430.607 84.8117L430.597 84.8157L430.586 84.8198L431.67 87.617ZM420.74 94.5816L422.8 96.7626L422.815 96.7485L422.829 96.7342L420.74 94.5816ZM413.365 105.285L410.609 104.101L410.609 104.101L413.365 105.285ZM412.048 133.158L409.185 134.053L409.193 134.078L409.201 134.104L412.048 133.158ZM428.666 152.06L427.415 154.786L427.439 154.797L427.463 154.808L428.666 152.06ZM462.03 150.792L463.548 153.38L463.548 153.38L462.03 150.792ZM474.521 134.285L477.334 135.327L478.765 131.463L474.649 131.288L474.521 134.285ZM458.535 133.603L458.663 130.606L456.415 130.51L455.694 132.642L458.535 133.603ZM453.425 139.279L455 141.832L455.028 141.815L455.055 141.797L453.425 139.279ZM432.251 137.095L434.428 135.031L434.428 135.031L432.251 137.095ZM458.48 110.868L428.939 109.609L428.683 115.603L458.224 116.863L458.48 110.868ZM431.793 112.933C431.907 111.895 432.175 110.648 432.63 109.177L426.898 107.404C426.362 109.136 425.995 110.767 425.829 112.279L431.793 112.933ZM432.583 109.315C433.037 108.067 433.729 106.867 434.693 105.713L430.087 101.868C428.71 103.517 427.652 105.318 426.944 107.266L432.583 109.315ZM434.622 105.794C435.566 104.743 436.795 103.85 438.373 103.144L435.92 97.668C433.667 98.6772 431.724 100.041 430.158 101.786L434.622 105.794ZM438.42 103.122C439.872 102.442 441.813 102.07 444.373 102.18L444.629 96.185C441.392 96.0469 438.43 96.4913 435.873 97.6895L438.42 103.122ZM444.373 102.18C448.294 102.347 450.571 103.492 451.875 105.084L456.517 101.282C453.761 97.918 449.575 96.3959 444.629 96.185L444.373 102.18ZM451.912 105.129C453.53 107.027 454.772 109.975 455.382 114.286L461.323 113.446C460.62 108.476 459.091 104.302 456.479 101.237L451.912 105.129ZM428.192 127.113L475.893 129.147L476.149 123.152L428.448 121.118L428.192 127.113ZM479.003 126.477C479.595 121.08 479.368 115.841 478.305 110.773L472.433 112.004C473.358 116.416 473.566 121.018 473.039 125.823L479.003 126.477ZM478.305 110.773C477.236 105.673 475.307 101.043 472.502 96.9182L467.54 100.292C469.879 103.732 471.515 107.625 472.433 112.004L478.305 110.773ZM472.527 96.9559C469.769 92.7638 466.123 89.3958 461.637 86.8609L458.685 92.0844C462.373 94.1686 465.3 96.8889 467.515 100.254L472.527 96.9559ZM461.679 86.8849C457.1 84.1991 451.748 82.7801 445.724 82.5232L445.469 88.5178C450.698 88.7408 455.057 89.9566 458.643 92.0604L461.679 86.8849ZM445.724 82.5232C440.332 82.2932 435.28 83.0409 430.607 84.8117L432.734 90.4223C436.569 88.9687 440.801 88.3187 445.469 88.5178L445.724 82.5232ZM430.586 84.8198C426.054 86.5767 422.066 89.1136 418.65 92.429L422.829 96.7342C425.651 93.9952 428.95 91.889 432.755 90.4142L430.586 84.8198ZM418.68 92.4006C415.248 95.6419 412.561 99.5558 410.609 104.101L416.121 106.469C417.772 102.627 420.002 99.4052 422.8 96.7626L418.68 92.4006ZM410.609 104.101C408.652 108.656 407.574 113.587 407.349 118.865L413.343 119.121C413.54 114.509 414.475 110.301 416.121 106.469L410.609 104.101ZM407.349 118.865C407.118 124.282 407.716 129.355 409.185 134.053L414.912 132.263C413.675 128.306 413.138 123.934 413.343 119.121L407.349 118.865ZM409.201 134.104C410.753 138.78 413.043 142.896 416.09 146.41L420.624 142.48C418.135 139.609 416.219 136.2 414.895 132.213L409.201 134.104ZM416.09 146.41C419.157 149.949 422.948 152.737 427.415 154.786L429.917 149.333C426.174 147.616 423.092 145.328 420.624 142.48L416.09 146.41ZM427.463 154.808C431.961 156.776 436.989 157.851 442.502 158.087L442.757 152.092C437.869 151.883 433.587 150.939 429.869 149.311L427.463 154.808ZM442.502 158.087C450.468 158.426 457.53 156.909 463.548 153.38L460.513 148.204C455.668 151.045 449.796 152.392 442.757 152.092L442.502 158.087ZM463.548 153.38C469.746 149.745 474.276 143.584 477.334 135.327L471.708 133.243C468.974 140.626 465.177 145.469 460.513 148.204L463.548 153.38ZM474.649 131.288L458.663 130.606L458.408 136.601L474.393 137.282L474.649 131.288ZM455.694 132.642C455.314 133.764 454.231 135.183 451.795 136.761L455.055 141.797C458.065 139.849 460.389 137.484 461.377 134.565L455.694 132.642ZM451.85 136.726C449.714 138.043 447.133 138.698 443.975 138.564L443.719 144.558C447.893 144.736 451.698 143.87 455 141.832L451.85 136.726ZM443.975 138.564C439.361 138.367 436.343 137.051 434.428 135.031L430.073 139.159C433.389 142.657 438.102 144.319 443.719 144.558L443.975 138.564ZM434.428 135.031C432.566 133.067 431.325 129.648 431.32 124.113L425.32 124.118C425.325 130.37 426.704 135.604 430.073 139.159L434.428 135.031ZM484.747 135.49L484.875 132.493L481.877 132.365L481.75 135.362L484.747 135.49ZM483.907 155.184L480.91 155.056L480.782 158.054L483.779 158.181L483.907 155.184ZM503.985 156.04L503.857 159.038L506.854 159.165L506.982 156.168L503.985 156.04ZM504.825 136.346L507.822 136.474L507.95 133.477L504.952 133.349L504.825 136.346ZM506.192 89.2578L509.15 89.7611L509.181 89.5746L509.189 89.3856L506.192 89.2578ZM507.239 64.7041L510.237 64.8319L510.364 61.8346L507.367 61.7068L507.239 64.7041ZM488.313 63.8969L488.44 60.8996L485.443 60.7718L485.315 63.7691L488.313 63.8969ZM487.265 88.4506L484.268 88.3228L484.26 88.507L484.275 88.6908L487.265 88.4506ZM490.445 128.046L487.455 128.286L487.667 130.93L490.317 131.043L490.445 128.046ZM499.525 128.433L499.397 131.431L502.039 131.543L502.482 128.937L499.525 128.433ZM481.75 135.362L480.91 155.056L486.904 155.312L487.744 135.618L481.75 135.362ZM483.779 158.181L503.857 159.038L504.113 153.043L484.035 152.187L483.779 158.181ZM506.982 156.168L507.822 136.474L501.827 136.218L500.987 155.913L506.982 156.168ZM504.952 133.349L484.875 132.493L484.619 138.487L504.697 139.344L504.952 133.349ZM509.189 89.3856L510.237 64.8319L504.242 64.5763L503.195 89.13L509.189 89.3856ZM507.367 61.7068L488.44 60.8996L488.185 66.8942L507.112 67.7014L507.367 61.7068ZM485.315 63.7691L484.268 88.3228L490.263 88.5784L491.31 64.0247L485.315 63.7691ZM484.275 88.6908L487.455 128.286L493.436 127.806L490.256 88.2105L484.275 88.6908ZM490.317 131.043L499.397 131.431L499.653 125.436L490.573 125.049L490.317 131.043ZM502.482 128.937L509.15 89.7611L503.235 88.7544L496.567 127.93L502.482 128.937Z" fill="black"/>
<rect x="17.6352" y="64.5223" width="233.38" height="120.39" rx="24" transform="rotate(-7.80158 17.6352 64.5223)" fill="#062446"/>
<path d="M100.213 133.805L106.818 99.5025L97.8778 100.727L94.0331 124.057L93.9063 124.075L83.9282 102.639L74.4804 103.933L90.195 135.177L100.213 133.805ZM119.501 114.496C119.321 113.185 119.272 111.879 119.351 110.576C119.431 109.273 119.701 108.095 120.159 107.041C120.66 105.982 121.377 105.087 122.311 104.356C123.238 103.583 124.463 103.093 125.985 102.884C127.507 102.676 128.818 102.819 129.919 103.314C131.057 103.761 131.989 104.43 132.714 105.321C133.481 106.207 134.078 107.266 134.506 108.499C134.933 109.733 135.237 111.005 135.416 112.315C135.596 113.626 135.646 114.932 135.566 116.235C135.48 117.496 135.19 118.677 134.695 119.778C134.236 120.832 133.519 121.726 132.543 122.463C131.61 123.194 130.382 123.664 128.86 123.872C127.339 124.081 126.03 123.958 124.934 123.506C123.839 123.053 122.907 122.384 122.14 121.498C121.409 120.565 120.833 119.503 120.411 118.311C119.984 117.078 119.68 115.806 119.501 114.496ZM110.497 115.729C110.856 118.35 111.582 120.662 112.675 122.666C113.768 124.67 115.158 126.331 116.846 127.65C118.528 128.927 120.46 129.825 122.641 130.344C124.823 130.864 127.203 130.947 129.781 130.593C132.36 130.24 134.63 129.52 136.591 128.433C138.595 127.34 140.235 125.953 141.511 124.27C142.782 122.546 143.675 120.572 144.188 118.348C144.702 116.125 144.779 113.702 144.42 111.082C144.061 108.461 143.335 106.148 142.242 104.145C141.144 102.099 139.753 100.438 138.071 99.161C136.383 97.8419 134.427 96.9256 132.204 96.412C130.017 95.8504 127.634 95.7462 125.055 96.0995C122.477 96.4528 120.21 97.1941 118.254 98.3233C116.293 99.4102 114.677 100.816 113.406 102.54C112.129 104.223 111.237 106.197 110.729 108.463C110.215 110.686 110.138 113.109 110.497 115.729ZM158.17 92.4668L156.823 82.6387L147.819 83.8723L149.166 93.7005L143.713 94.4476L144.538 100.471L149.991 99.7242L152.641 119.064C152.867 120.712 153.324 122.006 154.012 122.945C154.701 123.884 155.548 124.565 156.553 124.987C157.601 125.404 158.749 125.612 159.998 125.613C161.295 125.651 162.641 125.574 164.036 125.383C164.924 125.262 165.83 125.116 166.754 124.946C167.678 124.777 168.512 124.576 169.255 124.345L168.3 117.37C167.889 117.513 167.453 117.637 166.994 117.743C166.535 117.849 166.052 117.937 165.545 118.006C164.023 118.215 162.974 118.1 162.397 117.662C161.82 117.224 161.427 116.245 161.219 114.723L158.995 98.4906L165.589 97.5871L164.764 91.5633L158.17 92.4668ZM191.609 100.999L176.962 103.005C176.917 102.366 176.946 101.63 177.047 100.797C177.191 99.9595 177.488 99.1436 177.939 98.3497C178.432 97.55 179.112 96.854 179.979 96.2616C180.881 95.6211 182.051 95.2024 183.489 95.0055C185.687 94.7043 187.395 95.0731 188.614 96.1119C189.875 97.145 190.874 98.7739 191.609 100.999ZM177.744 108.712L201.395 105.472C201.217 102.912 200.672 100.511 199.762 98.2667C198.851 96.0228 197.595 94.0847 195.994 92.4524C194.434 90.8142 192.546 89.6086 190.33 88.8356C188.108 88.0204 185.603 87.8039 182.813 88.1861C180.319 88.5278 178.097 89.2844 176.147 90.4559C174.24 91.6216 172.653 93.0879 171.388 94.8546C170.117 96.5791 169.225 98.5532 168.711 100.777C168.198 103 168.109 105.338 168.445 107.79C168.792 110.326 169.491 112.599 170.542 114.608C171.634 116.612 173.004 118.276 174.649 119.601C176.295 120.926 178.212 121.869 180.399 122.431C182.58 122.95 184.96 123.033 187.539 122.68C191.259 122.17 194.313 120.89 196.702 118.84C199.091 116.79 200.651 113.713 201.38 109.608L193.454 110.694C193.297 111.749 192.627 112.831 191.444 113.941C190.256 115.008 188.752 115.666 186.935 115.915C184.398 116.263 182.364 115.874 180.832 114.749C179.3 113.624 178.27 111.612 177.744 108.712Z" fill="#00356B"/>
<rect x="15.103" y="59.9272" width="233.38" height="120.39" rx="24" transform="rotate(-7.80158 15.103 59.9272)" fill="#0038FF" fill-opacity="0.5"/>
<path d="M102.213 129.431L108.818 95.1289L99.8778 96.3539L96.0331 119.684L95.9063 119.701L85.9281 98.2651L76.4804 99.5596L92.195 130.804L102.213 129.431ZM120.55 110.252C120.37 108.942 120.32 107.635 120.4 106.332C120.48 105.03 120.749 103.851 121.208 102.798C121.709 101.739 122.426 100.844 123.359 100.113C124.287 99.3401 125.512 98.8493 127.034 98.6408C128.555 98.4323 129.867 98.5756 130.968 99.0707C132.106 99.5177 133.038 100.187 133.763 101.078C134.53 101.963 135.127 103.023 135.555 104.256C135.982 105.49 136.286 106.761 136.465 108.072C136.645 109.382 136.694 110.689 136.615 111.992C136.529 113.252 136.239 114.433 135.743 115.535C135.285 116.588 134.568 117.483 133.592 118.22C132.659 118.951 131.431 119.42 129.909 119.629C128.387 119.837 127.079 119.715 125.983 119.262C124.887 118.809 123.956 118.14 123.189 117.255C122.458 116.322 121.882 115.259 121.46 114.068C121.033 112.835 120.729 111.563 120.55 110.252ZM111.546 111.486C111.905 114.107 112.631 116.419 113.724 118.423C114.816 120.426 116.207 122.088 117.895 123.407C119.577 124.683 121.509 125.581 123.69 126.101C125.872 126.62 128.251 126.703 130.83 126.35C133.409 125.997 135.679 125.277 137.64 124.19C139.643 123.097 141.284 121.709 142.56 120.027C143.831 118.303 144.724 116.329 145.237 114.105C145.751 111.881 145.828 109.459 145.469 106.838C145.11 104.217 144.384 101.905 143.291 99.9016C142.193 97.8558 140.802 96.1945 139.12 94.9177C137.432 93.5986 135.476 92.6823 133.253 92.1687C131.065 91.6071 128.683 91.5029 126.104 91.8562C123.525 92.2095 121.258 92.9508 119.303 94.08C117.342 95.1669 115.726 96.5727 114.455 98.2972C113.178 99.9794 112.285 101.953 111.778 104.219C111.264 106.443 111.187 108.865 111.546 111.486ZM158.267 88.3539L156.921 78.5257L147.917 79.7593L149.263 89.5875L143.81 90.3346L144.636 96.3583L150.089 95.6112L152.738 114.951C152.964 116.599 153.422 117.893 154.11 118.832C154.799 119.772 155.646 120.452 156.651 120.874C157.698 121.291 158.847 121.499 160.096 121.5C161.393 121.538 162.739 121.461 164.134 121.27C165.021 121.149 165.927 121.003 166.852 120.833C167.776 120.664 168.61 120.463 169.353 120.232L168.398 113.257C167.986 113.4 167.551 113.524 167.092 113.63C166.633 113.736 166.15 113.824 165.642 113.893C164.121 114.102 163.071 113.987 162.495 113.549C161.918 113.111 161.525 112.132 161.317 110.61L159.093 94.3776L165.687 93.4741L164.862 87.4504L158.267 88.3539ZM190.756 97.0159L176.109 99.0228C176.064 98.3829 176.092 97.6469 176.194 96.8148C176.337 95.9769 176.635 95.161 177.086 94.367C177.579 93.5673 178.259 92.8713 179.125 92.2789C180.028 91.6384 181.198 91.2197 182.635 91.0228C184.833 90.7216 186.542 91.0905 187.761 92.1293C189.022 93.1623 190.02 94.7912 190.756 97.0159ZM176.891 104.729L200.542 101.489C200.363 98.9295 199.819 96.5279 198.908 94.284C197.998 92.0401 196.742 90.102 195.14 88.4697C193.581 86.8315 191.693 85.626 189.477 84.853C187.255 84.0377 184.749 83.8212 181.959 84.2034C179.465 84.5451 177.243 85.3017 175.294 86.4732C173.386 87.639 171.8 89.1052 170.535 90.872C169.264 92.5964 168.371 94.5705 167.858 96.7941C167.344 99.0178 167.255 101.355 167.591 103.807C167.939 106.344 168.638 108.616 169.688 110.626C170.781 112.629 172.15 114.293 173.796 115.618C175.442 116.943 177.358 117.886 179.545 118.448C181.727 118.967 184.107 119.05 186.685 118.697C190.405 118.188 193.46 116.908 195.849 114.858C198.238 112.808 199.797 109.73 200.527 105.625L192.601 106.711C192.444 107.766 191.774 108.849 190.591 109.958C189.402 111.025 187.899 111.683 186.081 111.933C183.545 112.28 181.511 111.891 179.979 110.766C178.446 109.641 177.417 107.629 176.891 104.729Z" fill="white"/>
</svg>
